PathFileType	4	(X/Y/Z)	/Users/itak/Documents/Research/Walk-IL/dataset/trc/00279_00010.trc
DataRate	CameraRate	NumFrames	NumMarkers	Units	OrigDataRate	OrigDataStartFrame	OrigNumFrames
100.000000	100.000000	4	53	mm	100.000000	470	752
Frame#	Time	RPSI			LPSI			L3			STRN			T10			C7			CLAV			RBAK			LBAK			LSHO			LUPA			LAEL			LAOL			LWTS			LWPS			LFRA			LIFD			LHPS			LHTS			RSHO			RUPA			RAEL			RAOL			RWTS			RWPS			RFRA			RIFD			RHTS			RHPS			RBHD			LFHD			RFHD			LBHD			LHIP			RHIP			RASI			LASI			LKNE			LTHI			LANK			LTIP			LTOE			LMT1			LMT5			LHEE			RKNE			RTHI			RANK			RTIP			RTOE			RMT1			RMT5			RHEE			
		X1	Y1	Z1	X2	Y2	Z2	X3	Y3	Z3	X4	Y4	Z4	X5	Y5	Z5	X6	Y6	Z6	X7	Y7	Z7	X8	Y8	Z8	X9	Y9	Z9	X10	Y10	Z10	X11	Y11	Z11	X12	Y12	Z12	X13	Y13	Z13	X14	Y14	Z14	X15	Y15	Z15	X16	Y16	Z16	X17	Y17	Z17	X18	Y18	Z18	X19	Y19	Z19	X20	Y20	Z20	X21	Y21	Z21	X22	Y22	Z22	X23	Y23	Z23	X24	Y24	Z24	X25	Y25	Z25	X26	Y26	Z26	X27	Y27	Z27	X28	Y28	Z28	X29	Y29	Z29	X30	Y30	Z30	X31	Y31	Z31	X32	Y32	Z32	X33	Y33	Z33	X34	Y34	Z34	X35	Y35	Z35	X36	Y36	Z36	X37	Y37	Z37	X38	Y38	Z38	X39	Y39	Z39	X40	Y40	Z40	X41	Y41	Z41	X42	Y42	Z42	X43	Y43	Z43	X44	Y44	Z44	X45	Y45	Z45	X46	Y46	Z46	X47	Y47	Z47	X48	Y48	Z48	X49	Y49	Z49	X50	Y50	Z50	X51	Y51	Z51	X52	Y52	Z52	X53	Y53	Z53	

471	4.7	-126.8314514160156	965.87939453125	-473.6024475097656	-16.38663101196289	949.9242553710938	-337.7149658203125	-70.66545104980469	1019.939575195312	-383.0728454589844	-245.8106994628906	1198.480712890625	-215.9849243164062	-45.62869644165039	1136.775634765625	-383.83544921875	-57.81128692626953	1381.0810546875	-328.2715759277344	-188.8787078857422	1297.223876953125	-245.5745239257812	-69.02761077880859	1248.903564453125	-427.4738159179688	18.6429328918457	1335.5341796875	-260.6980590820312	-20.38154602050781	1336.097290039062	-164.0894622802734	48.7811279296875	1215.3583984375	-136.8304748535156	58.27846145629883	1013.777587890625	-138.6613006591797	57.20851516723633	1002.312377929688	-224.5391235351562	-36.58193969726562	801.2511596679688	-107.1185073852539	33.95058441162109	786.5220947265625	-96.77507019042969	53.96249389648438	910.5621948242188	-124.2770385742188	-42.5505256652832	618.67919921875	-73.51972198486328	24.587646484375	702.88818359375	-85.89328002929688	-36.54211807250977	710.2510375976562	-63.24734115600586	-205.4005889892578	1371.78955078125	-417.4238891601562	-237.3389434814453	1322.647583007812	-482.8676452636719	-239.8558349609375	1066.6337890625	-566.694580078125	-178.1162872314453	1049.094482421875	-497.3046569824219	-310.8365478515625	831.1019897460938	-529.3536376953125	-292.8512268066406	843.3803100585938	-611.5806884765625	-264.5815124511719	1001.512512207031	-582.2592163085938	-291.071533203125	658.1626586914062	-557.7716674804688	-341.9413146972656	717.904541015625	-560.6249389648438	-312.1810302734375	731.2366333007812	-622.9263305664062	-148.1280059814453	1545.714233398438	-357.15478515625	-162.2052764892578	1566.152465820312	-145.3727111816406	-234.4036865234375	1570.17138671875	-205.3103485107422	-36.64789962768555	1528.885986328125	-263.9682006835938	-5.835431575775146	891.8488159179688	-224.4450988769531	-273.3969421386719	926.6636962890625	-485.7846984863281	-310.0668029785156	925.619873046875	-352.8061828613281	-140.5882873535156	895.1098022460938	-165.0098571777344	-26.84148788452148	445.0550537109375	-316.8552551269531	-28.05532646179199	579.5029907226562	-262.2145080566406	171.6909637451172	78.19992065429688	-504.4021606445312	76.38695526123047	253.2849578857422	-405.7603149414062	-24.45277976989746	33.62528610229492	-571.6263427734375	45.110595703125	44.47696685791016	-604.8275756835938	53.80453872680664	42.37920761108398	-494.2727355957031	212.7217559814453	104.2200927734375	-561.4649658203125	-408.7086791992188	496.162109375	-331.915771484375	-362.5691223144531	739.9978637695312	-412.1951904296875	-470.4519958496094	35.59268951416016	-317.2560119628906	-438.8470153808594	377.1146240234375	-296.7577819824219	-483.1524353027344	72.05558013916016	-121.6851501464844	-426.6010437011719	62.34896469116211	-157.9864501953125	-522.1771240234375	35.25066375732422	-224.0235137939453	-404.2901611328125	33.6998291015625	-346.7694702148438	
472	4.71	-136.0793151855469	967.89306640625	-466.8050231933594	-24.8866138458252	950.30224609375	-331.815673828125	-79.54896545410156	1020.928955078125	-376.776611328125	-253.670166015625	1200.2470703125	-208.8569946289062	-54.69878387451172	1138.100708007812	-378.5897827148438	-67.05398559570312	1382.519409179688	-324.129150390625	-197.0462646484375	1298.820068359375	-239.6704406738281	-79.17711639404297	1249.961791992188	-422.6985778808594	10.19218063354492	1337.482421875	-257.12255859375	-27.86473274230957	1338.367309570312	-160.096923828125	41.56145477294922	1217.760498046875	-132.9933166503906	51.78011703491211	1016.255432128906	-135.5871429443359	49.02984619140625	1004.990356445312	-221.2284545898438	-34.07262420654297	798.1420288085938	-106.6028900146484	37.67536926269531	786.7173461914062	-99.07080841064453	51.16537094116211	912.1177978515625	-123.1340179443359	-27.6572322845459	614.5091552734375	-78.08372497558594	33.37747573852539	702.8986206054688	-90.44550323486328	-27.3741569519043	705.7962646484375	-65.64723205566406	-215.7301940917969	1372.602905273438	-411.5264892578125	-248.4928588867188	1322.992919921875	-476.2466125488281	-252.3955230712891	1066.4873046875	-558.4669189453125	-189.9408111572266	1049.182495117188	-489.715087890625	-322.8670959472656	830.8345336914062	-520.9313354492188	-305.0214233398438	843.3858032226562	-603.1695556640625	-277.1908569335938	1001.476379394531	-573.7877807617188	-302.1860046386719	658.1116333007812	-550.4287109375	-353.5423278808594	717.5185546875	-552.613037109375	-324.0132141113281	731.2974243164062	-614.93896484375	-158.0992126464844	1547.322631835938	-352.0558471679688	-168.6952972412109	1567.646484375	-139.9677429199219	-241.8921966552734	1571.6103515625	-198.7970275878906	-45.08362197875977	1530.56298828125	-260.7356262207031	-13.4834098815918	891.5906372070312	-219.0379791259766	-283.1838073730469	930.0731201171875	-478.0670776367188	-318.9815979003906	928.3986206054688	-344.8550415039062	-148.0459747314453	895.779541015625	-159.0321197509766	-36.83300018310547	444.1075134277344	-309.4999694824219	-37.5815544128418	578.8673706054688	-256.0880737304688	168.3785247802734	83.21722412109375	-502.9703369140625	70.05498504638672	255.4207153320312	-401.1325378417969	-24.71973991394043	33.636474609375	-571.2982177734375	43.34572601318359	46.89585494995117	-604.0466918945312	52.64802932739258	41.83642196655273	-493.6589050292969	207.6892242431641	112.6522445678711	-559.2924194335938	-416.9561157226562	497.9623413085938	-323.8726806640625	-372.049560546875	743.3350830078125	-402.7530822753906	-471.5655212402344	35.20357513427734	-317.3236389160156	-445.1566162109375	377.5166320800781	-290.2197265625	-483.70947265625	68.98841857910156	-120.899284362793	-427.2687683105469	61.00270843505859	-157.9543762207031	-522.869873046875	33.4288215637207	-223.8998413085938	-405.5587463378906	34.50115203857422	-347.2304077148438	
473	4.72	-145.4056701660156	970.027587890625	-460.0166931152344	-33.26696395874023	950.9178466796875	-326.1390686035156	-88.19677734375	1022.314697265625	-370.6296691894531	-261.3985900878906	1202.30419921875	-201.5823822021484	-63.62981033325195	1139.733032226562	-373.2618713378906	-76.20816802978516	1384.223022460938	-319.7875671386719	-205.0727691650391	1300.715698242188	-233.6338195800781	-89.21135711669922	1251.295776367188	-417.7188415527344	1.817194819450378	1339.75341796875	-253.3312683105469	-35.34452438354492	1340.96142578125	-155.9235229492188	34.40463256835938	1220.598754882812	-128.8493194580078	45.5763053894043	1019.282287597656	-132.3501892089844	41.45522689819336	1008.217224121094	-217.7352447509766	-31.59334754943848	796.061279296875	-106.4393615722656	41.06637573242188	787.9234619140625	-101.3078918457031	48.45444107055664	914.4771728515625	-121.8374938964844	-13.22461414337158	611.96826171875	-84.11317443847656	41.68085861206055	704.1506958007812	-95.29709625244141	-18.60026741027832	702.5665893554688	-68.91054534912109	-225.9146423339844	1373.71240234375	-405.4150695800781	-259.4880676269531	1323.695434570312	-469.4051818847656	-264.7813415527344	1066.748168945312	-550.0791625976562	-201.5805511474609	1049.675170898438	-482.0046081542969	-334.8812561035156	831.0181274414062	-512.0760498046875	-317.2788696289062	843.75048828125	-594.3554077148438	-289.6971130371094	1001.821594238281	-565.0889282226562	-313.4154357910156	658.4696044921875	-542.4440307617188	-365.1877136230469	717.5449829101562	-543.998046875	-335.9944458007812	731.7059326171875	-606.4097900390625	-167.9917755126953	1549.073852539062	-346.8591613769531	-175.1492614746094	1569.424560546875	-134.5313415527344	-249.3070678710938	1573.290893554688	-192.25732421875	-53.49184417724609	1532.45556640625	-257.39404296875	-20.90074348449707	891.6282348632812	-213.8500671386719	-293.0055236816406	933.494140625	-470.2140502929688	-327.7779235839844	931.3506469726562	-336.7320861816406	-155.1447601318359	896.81103515625	-153.1294860839844	-47.12810134887695	443.1390380859375	-301.17431640625	-47.21756744384766	578.3174438476562	-249.4336242675781	164.3611602783203	88.83872222900391	-501.2814025878906	63.31980133056641	257.8704223632812	-395.935791015625	-25.06115341186523	33.58480072021484	-570.8656005859375	41.1048583984375	49.69839859008789	-603.0681762695312	51.38484573364258	41.27441787719727	-492.9869384765625	201.4947967529297	121.8987579345703	-556.730712890625	-424.721435546875	499.4179077148438	-316.5183715820312	-381.4181823730469	746.4678344726562	-393.6050720214844	-472.5404968261719	34.90678787231445	-317.4576416015625	-451.0411071777344	377.7365417480469	-284.3200988769531	-484.2031555175781	66.49982452392578	-120.3044586181641	-427.9304504394531	59.99558258056641	-158.0428924560547	-523.5242919921875	32.16930389404297	-223.9803314208984	-406.6992797851562	35.15201950073242	-347.6793823242188	
474	4.73	-154.8508758544922	972.2478637695312	-453.3085632324219	-41.51079559326172	951.7470092773438	-320.8111572265625	-96.64712524414062	1024.079711914062	-364.7134399414062	-268.9623107910156	1204.558349609375	-194.1719665527344	-72.44569396972656	1141.629638671875	-367.9031066894531	-85.26689147949219	1386.147827148438	-315.2538757324219	-212.9478607177734	1302.83935546875	-227.4549713134766	-99.12861633300781	1252.862670898438	-412.5612182617188	-6.4651780128479	1342.291381835938	-249.3487396240234	-42.79089736938477	1343.806396484375	-151.5845794677734	27.35564422607422	1223.803344726562	-124.4382781982422	39.75005340576172	1022.761108398438	-128.9557037353516	34.60402297973633	1011.937561035156	-214.0963287353516	-29.22293090820312	794.9813842773438	-106.6124649047852	44.0342903137207	790.014404296875	-103.3224563598633	45.85556030273438	917.5454711914062	-120.3441009521484	0.334889680147171	611.0364379882812	-91.49409484863281	49.30442428588867	706.4812622070312	-100.2446975708008	-10.47281169891357	700.5308227539062	-72.95655059814453	-235.9598541259766	1375.058227539062	-399.0806274414062	-270.3271179199219	1324.699829101562	-462.3427124023438	-276.9993896484375	1067.371704101562	-541.5803833007812	-213.0150604248047	1050.521728515625	-474.22705078125	-346.85107421875	831.6214599609375	-502.7873840332031	-329.6363525390625	844.4209594726562	-585.1476440429688	-302.0831604003906	1002.4970703125	-556.206298828125	-324.7840881347656	659.1875610351562	-533.77490234375	-376.8976440429688	717.9598999023438	-534.7337646484375	-348.1651916503906	732.4072265625	-597.3046264648438	-177.7870178222656	1550.911499023438	-341.5634460449219	-181.563232421875	1571.442626953125	-129.0674743652344	-256.6344604492188	1575.177124023438	-185.6945343017578	-61.86010360717773	1534.49462890625	-253.9315795898438	-28.0516471862793	891.9431762695312	-209.0005645751953	-302.889892578125	936.8221435546875	-462.2330322265625	-336.4041748046875	934.3350830078125	-328.4371948242188	-161.7897491455078	898.1648559570312	-147.3240051269531	-57.64310836791992	442.1630554199219	-291.8692626953125	-56.86264038085938	577.8568115234375	-242.2520294189453	159.5329742431641	95.11180114746094	-499.2715759277344	56.14994812011719	260.6491394042969	-390.1654968261719	-25.52099609375	33.446044921875	-570.2855224609375	38.29847717285156	52.91902160644531	-601.8204345703125	49.99624252319336	40.80682754516602	-492.2242736816406	193.9992218017578	131.9219665527344	-553.7227783203125	-431.9100341796875	500.4665222167969	-309.8969421386719	-390.6486206054688	749.2404174804688	-384.8453369140625	-473.3587036132812	34.69348526000977	-317.5957946777344	-456.4477844238281	377.7384033203125	-279.0583801269531	-484.55859375	64.41436004638672	-119.7832870483398	-428.5164794921875	59.17166519165039	-158.1556549072266	-524.083251953125	31.36889266967773	-224.1474151611328	-407.6849060058594	35.65990447998047	-348.0812683105469	
